<?xml version="1.0" encoding="UTF-8" standalone="no" ?>
<svg width="1120" height="400">
<rect x="40.0" y="40.0" width="64" height="64" style="fill:rgb(151.6, 145.66666666666666, 180.86666666666667);stroke:black;stroke-width:1" /><text x="60.0" y="82.0" style="fill:black;font-size:36;font-family:sans-serif;">8</text><rect x="120.0" y="40.0" width="64" height="64" style="fill:rgb(151.6, 145.66666666666666, 180.86666666666667);stroke:black;stroke-width:1" /><text x="140.0" y="82.0" style="fill:black;font-size:36;font-family:sans-serif;">8</text><rect x="200.0" y="40.0" width="64" height="64" style="fill:rgb(161.0, 142.33333333333334, 174.33333333333334);stroke:black;stroke-width:1" /><text x="208.0" y="82.0" style="fill:black;font-size:36;font-family:sans-serif;">10</text><rect x="280.0" y="40.0" width="64" height="64" style="fill:rgb(156.3, 144.0, 177.6);stroke:black;stroke-width:1" /><text x="300.0" y="82.0" style="fill:black;font-size:36;font-family:sans-serif;">9</text><rect x="400.0" y="40.0" width="64" height="64" style="fill:rgb(165.7, 140.66666666666666, 171.06666666666666);stroke:black;stroke-width:1" /><text x="408.0" y="82.0" style="fill:black;font-size:36;font-family:sans-serif;">11</text><rect x="480.0" y="40.0" width="64" height="64" style="fill:rgb(165.7, 140.66666666666666, 171.06666666666666);stroke:black;stroke-width:1" /><text x="488.0" y="82.0" style="fill:black;font-size:36;font-family:sans-serif;">11</text><rect x="560.0" y="40.0" width="64" height="64" style="fill:rgb(170.4, 139.0, 167.8);stroke:black;stroke-width:1" /><text x="568.0" y="82.0" style="fill:black;font-size:36;font-family:sans-serif;">12</text><rect x="640.0" y="40.0" width="64" height="64" style="fill:rgb(165.7, 140.66666666666666, 171.06666666666666);stroke:black;stroke-width:1" /><text x="648.0" y="82.0" style="fill:black;font-size:36;font-family:sans-serif;">11</text><rect x="760.0" y="40.0" width="64" height="64" style="fill:rgb(212.7, 124.0, 138.4);stroke:black;stroke-width:1" /><text x="768.0" y="82.0" style="fill:black;font-size:36;font-family:sans-serif;">21</text><rect x="840.0" y="40.0" width="64" height="64" style="fill:rgb(208.0, 125.66666666666666, 141.66666666666669);stroke:black;stroke-width:1" /><text x="848.0" y="82.0" style="fill:black;font-size:36;font-family:sans-serif;">20</text><rect x="920.0" y="40.0" width="64" height="64" style="fill:rgb(208.0, 125.66666666666666, 141.66666666666669);stroke:black;stroke-width:1" /><text x="928.0" y="82.0" style="fill:black;font-size:36;font-family:sans-serif;">20</text><rect x="1000.0" y="40.0" width="64" height="64" style="fill:rgb(208.0, 125.66666666666666, 141.66666666666669);stroke:black;stroke-width:1" /><text x="1008.0" y="82.0" style="fill:black;font-size:36;font-family:sans-serif;">20</text><rect x="40.0" y="120.0" width="64" height="64" style="fill:rgb(161.0, 142.33333333333334, 174.33333333333334);stroke:black;stroke-width:1" /><text x="48.0" y="162.0" style="fill:black;font-size:36;font-family:sans-serif;">10</text><rect x="120.0" y="120.0" width="64" height="64" style="fill:rgb(156.3, 144.0, 177.6);stroke:black;stroke-width:1" /><text x="140.0" y="162.0" style="fill:black;font-size:36;font-family:sans-serif;">9</text><rect x="200.0" y="120.0" width="64" height="64" style="fill:rgb(156.3, 144.0, 177.6);stroke:black;stroke-width:1" /><text x="220.0" y="162.0" style="fill:black;font-size:36;font-family:sans-serif;">9</text><rect x="280.0" y="120.0" width="64" height="64" style="fill:rgb(161.0, 142.33333333333334, 174.33333333333334);stroke:black;stroke-width:1" /><text x="288.0" y="162.0" style="fill:black;font-size:36;font-family:sans-serif;">10</text><rect x="400.0" y="120.0" width="64" height="64" style="fill:rgb(175.1, 137.33333333333334, 164.53333333333333);stroke:black;stroke-width:1" /><text x="408.0" y="162.0" style="fill:black;font-size:36;font-family:sans-serif;">13</text><rect x="480.0" y="120.0" width="64" height="64" style="fill:rgb(170.4, 139.0, 167.8);stroke:black;stroke-width:1" /><text x="488.0" y="162.0" style="fill:black;font-size:36;font-family:sans-serif;">12</text><rect x="560.0" y="120.0" width="64" height="64" style="fill:rgb(170.4, 139.0, 167.8);stroke:black;stroke-width:1" /><text x="568.0" y="162.0" style="fill:black;font-size:36;font-family:sans-serif;">12</text><rect x="640.0" y="120.0" width="64" height="64" style="fill:rgb(175.1, 137.33333333333334, 164.53333333333333);stroke:black;stroke-width:1" /><text x="648.0" y="162.0" style="fill:black;font-size:36;font-family:sans-serif;">13</text><rect x="760.0" y="120.0" width="64" height="64" style="fill:rgb(217.4, 122.33333333333333, 135.13333333333333);stroke:black;stroke-width:1" /><text x="768.0" y="162.0" style="fill:black;font-size:36;font-family:sans-serif;">22</text><rect x="840.0" y="120.0" width="64" height="64" style="fill:rgb(212.7, 124.0, 138.4);stroke:black;stroke-width:1" /><text x="848.0" y="162.0" style="fill:black;font-size:36;font-family:sans-serif;">21</text><rect x="920.0" y="120.0" width="64" height="64" style="fill:rgb(212.7, 124.0, 138.4);stroke:black;stroke-width:1" /><text x="928.0" y="162.0" style="fill:black;font-size:36;font-family:sans-serif;">21</text><rect x="1000.0" y="120.0" width="64" height="64" style="fill:rgb(217.4, 122.33333333333333, 135.13333333333333);stroke:black;stroke-width:1" /><text x="1008.0" y="162.0" style="fill:black;font-size:36;font-family:sans-serif;">22</text><rect x="40.0" y="200.0" width="64" height="64" style="fill:rgb(165.7, 140.66666666666666, 171.06666666666666);stroke:black;stroke-width:1" /><text x="48.0" y="242.0" style="fill:black;font-size:36;font-family:sans-serif;">11</text><rect x="120.0" y="200.0" width="64" height="64" style="fill:rgb(165.7, 140.66666666666666, 171.06666666666666);stroke:black;stroke-width:1" /><text x="128.0" y="242.0" style="fill:black;font-size:36;font-family:sans-serif;">11</text><rect x="200.0" y="200.0" width="64" height="64" style="fill:rgb(161.0, 142.33333333333334, 174.33333333333334);stroke:black;stroke-width:1" /><text x="208.0" y="242.0" style="fill:black;font-size:36;font-family:sans-serif;">10</text><rect x="280.0" y="200.0" width="64" height="64" style="fill:rgb(161.0, 142.33333333333334, 174.33333333333334);stroke:black;stroke-width:1" /><text x="288.0" y="242.0" style="fill:black;font-size:36;font-family:sans-serif;">10</text><rect x="400.0" y="200.0" width="64" height="64" style="fill:rgb(179.8, 135.66666666666666, 161.26666666666665);stroke:black;stroke-width:1" /><text x="408.0" y="242.0" style="fill:black;font-size:36;font-family:sans-serif;">14</text><rect x="480.0" y="200.0" width="64" height="64" style="fill:rgb(179.8, 135.66666666666666, 161.26666666666665);stroke:black;stroke-width:1" /><text x="488.0" y="242.0" style="fill:black;font-size:36;font-family:sans-serif;">14</text><rect x="560.0" y="200.0" width="64" height="64" style="fill:rgb(175.1, 137.33333333333334, 164.53333333333333);stroke:black;stroke-width:1" /><text x="568.0" y="242.0" style="fill:black;font-size:36;font-family:sans-serif;">13</text><rect x="640.0" y="200.0" width="64" height="64" style="fill:rgb(175.1, 137.33333333333334, 164.53333333333333);stroke:black;stroke-width:1" /><text x="648.0" y="242.0" style="fill:black;font-size:36;font-family:sans-serif;">13</text><rect x="760.0" y="200.0" width="64" height="64" style="fill:rgb(217.4, 122.33333333333333, 135.13333333333333);stroke:black;stroke-width:1" /><text x="768.0" y="242.0" style="fill:black;font-size:36;font-family:sans-serif;">22</text><rect x="840.0" y="200.0" width="64" height="64" style="fill:rgb(217.4, 122.33333333333333, 135.13333333333333);stroke:black;stroke-width:1" /><text x="848.0" y="242.0" style="fill:black;font-size:36;font-family:sans-serif;">22</text><rect x="920.0" y="200.0" width="64" height="64" style="fill:rgb(217.4, 122.33333333333333, 135.13333333333333);stroke:black;stroke-width:1" /><text x="928.0" y="242.0" style="fill:black;font-size:36;font-family:sans-serif;">22</text><rect x="1000.0" y="200.0" width="64" height="64" style="fill:rgb(217.4, 122.33333333333333, 135.13333333333333);stroke:black;stroke-width:1" /><text x="1008.0" y="242.0" style="fill:black;font-size:36;font-family:sans-serif;">22</text><rect x="40.0" y="280.0" width="64" height="64" style="fill:rgb(161.0, 142.33333333333334, 174.33333333333334);stroke:black;stroke-width:1" /><text x="48.0" y="322.0" style="fill:black;font-size:36;font-family:sans-serif;">10</text><rect x="120.0" y="280.0" width="64" height="64" style="fill:rgb(165.7, 140.66666666666666, 171.06666666666666);stroke:black;stroke-width:1" /><text x="128.0" y="322.0" style="fill:black;font-size:36;font-family:sans-serif;">11</text><rect x="200.0" y="280.0" width="64" height="64" style="fill:rgb(170.4, 139.0, 167.8);stroke:black;stroke-width:1" /><text x="208.0" y="322.0" style="fill:black;font-size:36;font-family:sans-serif;">12</text><rect x="280.0" y="280.0" width="64" height="64" style="fill:rgb(161.0, 142.33333333333334, 174.33333333333334);stroke:black;stroke-width:1" /><text x="288.0" y="322.0" style="fill:black;font-size:36;font-family:sans-serif;">10</text><rect x="400.0" y="280.0" width="64" height="64" style="fill:rgb(179.8, 135.66666666666666, 161.26666666666665);stroke:black;stroke-width:1" /><text x="408.0" y="322.0" style="fill:black;font-size:36;font-family:sans-serif;">14</text><rect x="480.0" y="280.0" width="64" height="64" style="fill:rgb(184.5, 134.0, 158.0);stroke:black;stroke-width:1" /><text x="488.0" y="322.0" style="fill:black;font-size:36;font-family:sans-serif;">15</text><rect x="560.0" y="280.0" width="64" height="64" style="fill:rgb(184.5, 134.0, 158.0);stroke:black;stroke-width:1" /><text x="568.0" y="322.0" style="fill:black;font-size:36;font-family:sans-serif;">15</text><rect x="640.0" y="280.0" width="64" height="64" style="fill:rgb(179.8, 135.66666666666666, 161.26666666666665);stroke:black;stroke-width:1" /><text x="648.0" y="322.0" style="fill:black;font-size:36;font-family:sans-serif;">14</text><rect x="760.0" y="280.0" width="64" height="64" style="fill:rgb(217.4, 122.33333333333333, 135.13333333333333);stroke:black;stroke-width:1" /><text x="768.0" y="322.0" style="fill:black;font-size:36;font-family:sans-serif;">22</text><rect x="840.0" y="280.0" width="64" height="64" style="fill:rgb(222.10000000000002, 120.66666666666666, 131.86666666666667);stroke:black;stroke-width:1" /><text x="848.0" y="322.0" style="fill:black;font-size:36;font-family:sans-serif;">23</text><rect x="920.0" y="280.0" width="64" height="64" style="fill:rgb(217.4, 122.33333333333333, 135.13333333333333);stroke:black;stroke-width:1" /><text x="928.0" y="322.0" style="fill:black;font-size:36;font-family:sans-serif;">22</text><rect x="1000.0" y="280.0" width="64" height="64" style="fill:rgb(222.10000000000002, 120.66666666666666, 131.86666666666667);stroke:black;stroke-width:1" /><text x="1008.0" y="322.0" style="fill:black;font-size:36;font-family:sans-serif;">23</text></svg>