<?xml version="1.0" encoding="UTF-8" standalone="no" ?>
<svg width="1120" height="400">
<rect x="40.0" y="40.0" width="64" height="64" style="fill:rgb(123.4, 155.66666666666666, 200.46666666666667);stroke:black;stroke-width:1" /><text x="60.0" y="82.0" style="fill:black;font-size:36;font-family:sans-serif;">2</text><rect x="120.0" y="40.0" width="64" height="64" style="fill:rgb(132.8, 152.33333333333334, 193.93333333333334);stroke:black;stroke-width:1" /><text x="140.0" y="82.0" style="fill:black;font-size:36;font-family:sans-serif;">4</text><rect x="200.0" y="40.0" width="64" height="64" style="fill:rgb(132.8, 152.33333333333334, 193.93333333333334);stroke:black;stroke-width:1" /><text x="220.0" y="82.0" style="fill:black;font-size:36;font-family:sans-serif;">4</text><rect x="280.0" y="40.0" width="64" height="64" style="fill:rgb(132.8, 152.33333333333334, 193.93333333333334);stroke:black;stroke-width:1" /><text x="300.0" y="82.0" style="fill:black;font-size:36;font-family:sans-serif;">4</text><rect x="400.0" y="40.0" width="64" height="64" style="fill:rgb(161.0, 142.33333333333334, 174.33333333333334);stroke:black;stroke-width:1" /><text x="408.0" y="82.0" style="fill:black;font-size:36;font-family:sans-serif;">10</text><rect x="480.0" y="40.0" width="64" height="64" style="fill:rgb(161.0, 142.33333333333334, 174.33333333333334);stroke:black;stroke-width:1" /><text x="488.0" y="82.0" style="fill:black;font-size:36;font-family:sans-serif;">10</text><rect x="560.0" y="40.0" width="64" height="64" style="fill:rgb(161.0, 142.33333333333334, 174.33333333333334);stroke:black;stroke-width:1" /><text x="568.0" y="82.0" style="fill:black;font-size:36;font-family:sans-serif;">10</text><rect x="640.0" y="40.0" width="64" height="64" style="fill:rgb(161.0, 142.33333333333334, 174.33333333333334);stroke:black;stroke-width:1" /><text x="648.0" y="82.0" style="fill:black;font-size:36;font-family:sans-serif;">10</text><rect x="760.0" y="40.0" width="64" height="64" style="fill:rgb(128.1, 154.0, 197.2);stroke:black;stroke-width:1" /><text x="780.0" y="82.0" style="fill:black;font-size:36;font-family:sans-serif;">3</text><rect x="840.0" y="40.0" width="64" height="64" style="fill:rgb(128.1, 154.0, 197.2);stroke:black;stroke-width:1" /><text x="860.0" y="82.0" style="fill:black;font-size:36;font-family:sans-serif;">3</text><rect x="920.0" y="40.0" width="64" height="64" style="fill:rgb(132.8, 152.33333333333334, 193.93333333333334);stroke:black;stroke-width:1" /><text x="940.0" y="82.0" style="fill:black;font-size:36;font-family:sans-serif;">4</text><rect x="1000.0" y="40.0" width="64" height="64" style="fill:rgb(132.8, 152.33333333333334, 193.93333333333334);stroke:black;stroke-width:1" /><text x="1020.0" y="82.0" style="fill:black;font-size:36;font-family:sans-serif;">4</text><rect x="40.0" y="120.0" width="64" height="64" style="fill:rgb(128.1, 154.0, 197.2);stroke:black;stroke-width:1" /><text x="60.0" y="162.0" style="fill:black;font-size:36;font-family:sans-serif;">3</text><rect x="120.0" y="120.0" width="64" height="64" style="fill:rgb(132.8, 152.33333333333334, 193.93333333333334);stroke:black;stroke-width:1" /><text x="140.0" y="162.0" style="fill:black;font-size:36;font-family:sans-serif;">4</text><rect x="200.0" y="120.0" width="64" height="64" style="fill:rgb(132.8, 152.33333333333334, 193.93333333333334);stroke:black;stroke-width:1" /><text x="220.0" y="162.0" style="fill:black;font-size:36;font-family:sans-serif;">4</text><rect x="280.0" y="120.0" width="64" height="64" style="fill:rgb(128.1, 154.0, 197.2);stroke:black;stroke-width:1" /><text x="300.0" y="162.0" style="fill:black;font-size:36;font-family:sans-serif;">3</text><rect x="400.0" y="120.0" width="64" height="64" style="fill:rgb(165.7, 140.66666666666666, 171.06666666666666);stroke:black;stroke-width:1" /><text x="408.0" y="162.0" style="fill:black;font-size:36;font-family:sans-serif;">11</text><rect x="480.0" y="120.0" width="64" height="64" style="fill:rgb(165.7, 140.66666666666666, 171.06666666666666);stroke:black;stroke-width:1" /><text x="488.0" y="162.0" style="fill:black;font-size:36;font-family:sans-serif;">11</text><rect x="560.0" y="120.0" width="64" height="64" style="fill:rgb(161.0, 142.33333333333334, 174.33333333333334);stroke:black;stroke-width:1" /><text x="568.0" y="162.0" style="fill:black;font-size:36;font-family:sans-serif;">10</text><rect x="640.0" y="120.0" width="64" height="64" style="fill:rgb(161.0, 142.33333333333334, 174.33333333333334);stroke:black;stroke-width:1" /><text x="648.0" y="162.0" style="fill:black;font-size:36;font-family:sans-serif;">10</text><rect x="760.0" y="120.0" width="64" height="64" style="fill:rgb(128.1, 154.0, 197.2);stroke:black;stroke-width:1" /><text x="780.0" y="162.0" style="fill:black;font-size:36;font-family:sans-serif;">3</text><rect x="840.0" y="120.0" width="64" height="64" style="fill:rgb(132.8, 152.33333333333334, 193.93333333333334);stroke:black;stroke-width:1" /><text x="860.0" y="162.0" style="fill:black;font-size:36;font-family:sans-serif;">4</text><rect x="920.0" y="120.0" width="64" height="64" style="fill:rgb(132.8, 152.33333333333334, 193.93333333333334);stroke:black;stroke-width:1" /><text x="940.0" y="162.0" style="fill:black;font-size:36;font-family:sans-serif;">4</text><rect x="1000.0" y="120.0" width="64" height="64" style="fill:rgb(132.8, 152.33333333333334, 193.93333333333334);stroke:black;stroke-width:1" /><text x="1020.0" y="162.0" style="fill:black;font-size:36;font-family:sans-serif;">4</text><rect x="40.0" y="200.0" width="64" height="64" style="fill:rgb(132.8, 152.33333333333334, 193.93333333333334);stroke:black;stroke-width:1" /><text x="60.0" y="242.0" style="fill:black;font-size:36;font-family:sans-serif;">4</text><rect x="120.0" y="200.0" width="64" height="64" style="fill:rgb(132.8, 152.33333333333334, 193.93333333333334);stroke:black;stroke-width:1" /><text x="140.0" y="242.0" style="fill:black;font-size:36;font-family:sans-serif;">4</text><rect x="200.0" y="200.0" width="64" height="64" style="fill:rgb(132.8, 152.33333333333334, 193.93333333333334);stroke:black;stroke-width:1" /><text x="220.0" y="242.0" style="fill:black;font-size:36;font-family:sans-serif;">4</text><rect x="280.0" y="200.0" width="64" height="64" style="fill:rgb(128.1, 154.0, 197.2);stroke:black;stroke-width:1" /><text x="300.0" y="242.0" style="fill:black;font-size:36;font-family:sans-serif;">3</text><rect x="400.0" y="200.0" width="64" height="64" style="fill:rgb(170.4, 139.0, 167.8);stroke:black;stroke-width:1" /><text x="408.0" y="242.0" style="fill:black;font-size:36;font-family:sans-serif;">12</text><rect x="480.0" y="200.0" width="64" height="64" style="fill:rgb(161.0, 142.33333333333334, 174.33333333333334);stroke:black;stroke-width:1" /><text x="488.0" y="242.0" style="fill:black;font-size:36;font-family:sans-serif;">10</text><rect x="560.0" y="200.0" width="64" height="64" style="fill:rgb(165.7, 140.66666666666666, 171.06666666666666);stroke:black;stroke-width:1" /><text x="568.0" y="242.0" style="fill:black;font-size:36;font-family:sans-serif;">11</text><rect x="640.0" y="200.0" width="64" height="64" style="fill:rgb(165.7, 140.66666666666666, 171.06666666666666);stroke:black;stroke-width:1" /><text x="648.0" y="242.0" style="fill:black;font-size:36;font-family:sans-serif;">11</text><rect x="760.0" y="200.0" width="64" height="64" style="fill:rgb(132.8, 152.33333333333334, 193.93333333333334);stroke:black;stroke-width:1" /><text x="780.0" y="242.0" style="fill:black;font-size:36;font-family:sans-serif;">4</text><rect x="840.0" y="200.0" width="64" height="64" style="fill:rgb(132.8, 152.33333333333334, 193.93333333333334);stroke:black;stroke-width:1" /><text x="860.0" y="242.0" style="fill:black;font-size:36;font-family:sans-serif;">4</text><rect x="920.0" y="200.0" width="64" height="64" style="fill:rgb(132.8, 152.33333333333334, 193.93333333333334);stroke:black;stroke-width:1" /><text x="940.0" y="242.0" style="fill:black;font-size:36;font-family:sans-serif;">4</text><rect x="1000.0" y="200.0" width="64" height="64" style="fill:rgb(132.8, 152.33333333333334, 193.93333333333334);stroke:black;stroke-width:1" /><text x="1020.0" y="242.0" style="fill:black;font-size:36;font-family:sans-serif;">4</text><rect x="40.0" y="280.0" width="64" height="64" style="fill:rgb(137.5, 150.66666666666666, 190.66666666666666);stroke:black;stroke-width:1" /><text x="60.0" y="322.0" style="fill:black;font-size:36;font-family:sans-serif;">5</text><rect x="120.0" y="280.0" width="64" height="64" style="fill:rgb(137.5, 150.66666666666666, 190.66666666666666);stroke:black;stroke-width:1" /><text x="140.0" y="322.0" style="fill:black;font-size:36;font-family:sans-serif;">5</text><rect x="200.0" y="280.0" width="64" height="64" style="fill:rgb(132.8, 152.33333333333334, 193.93333333333334);stroke:black;stroke-width:1" /><text x="220.0" y="322.0" style="fill:black;font-size:36;font-family:sans-serif;">4</text><rect x="280.0" y="280.0" width="64" height="64" style="fill:rgb(132.8, 152.33333333333334, 193.93333333333334);stroke:black;stroke-width:1" /><text x="300.0" y="322.0" style="fill:black;font-size:36;font-family:sans-serif;">4</text><rect x="400.0" y="280.0" width="64" height="64" style="fill:rgb(165.7, 140.66666666666666, 171.06666666666666);stroke:black;stroke-width:1" /><text x="408.0" y="322.0" style="fill:black;font-size:36;font-family:sans-serif;">11</text><rect x="480.0" y="280.0" width="64" height="64" style="fill:rgb(170.4, 139.0, 167.8);stroke:black;stroke-width:1" /><text x="488.0" y="322.0" style="fill:black;font-size:36;font-family:sans-serif;">12</text><rect x="560.0" y="280.0" width="64" height="64" style="fill:rgb(161.0, 142.33333333333334, 174.33333333333334);stroke:black;stroke-width:1" /><text x="568.0" y="322.0" style="fill:black;font-size:36;font-family:sans-serif;">10</text><rect x="640.0" y="280.0" width="64" height="64" style="fill:rgb(165.7, 140.66666666666666, 171.06666666666666);stroke:black;stroke-width:1" /><text x="648.0" y="322.0" style="fill:black;font-size:36;font-family:sans-serif;">11</text><rect x="760.0" y="280.0" width="64" height="64" style="fill:rgb(137.5, 150.66666666666666, 190.66666666666666);stroke:black;stroke-width:1" /><text x="780.0" y="322.0" style="fill:black;font-size:36;font-family:sans-serif;">5</text><rect x="840.0" y="280.0" width="64" height="64" style="fill:rgb(137.5, 150.66666666666666, 190.66666666666666);stroke:black;stroke-width:1" /><text x="860.0" y="322.0" style="fill:black;font-size:36;font-family:sans-serif;">5</text><rect x="920.0" y="280.0" width="64" height="64" style="fill:rgb(132.8, 152.33333333333334, 193.93333333333334);stroke:black;stroke-width:1" /><text x="940.0" y="322.0" style="fill:black;font-size:36;font-family:sans-serif;">4</text><rect x="1000.0" y="280.0" width="64" height="64" style="fill:rgb(132.8, 152.33333333333334, 193.93333333333334);stroke:black;stroke-width:1" /><text x="1020.0" y="322.0" style="fill:black;font-size:36;font-family:sans-serif;">4</text></svg>