<?xml version="1.0" encoding="UTF-8" standalone="no" ?>
<svg width="1120" height="400">
<rect x="40.0" y="40.0" width="64" height="64" style="fill:rgb(128.1, 154.0, 197.2);stroke:black;stroke-width:1" /><text x="60.0" y="82.0" style="fill:black;font-size:36;font-family:sans-serif;">3</text><rect x="120.0" y="40.0" width="64" height="64" style="fill:rgb(128.1, 154.0, 197.2);stroke:black;stroke-width:1" /><text x="140.0" y="82.0" style="fill:black;font-size:36;font-family:sans-serif;">3</text><rect x="200.0" y="40.0" width="64" height="64" style="fill:rgb(132.8, 152.33333333333334, 193.93333333333334);stroke:black;stroke-width:1" /><text x="220.0" y="82.0" style="fill:black;font-size:36;font-family:sans-serif;">4</text><rect x="280.0" y="40.0" width="64" height="64" style="fill:rgb(132.8, 152.33333333333334, 193.93333333333334);stroke:black;stroke-width:1" /><text x="300.0" y="82.0" style="fill:black;font-size:36;font-family:sans-serif;">4</text><rect x="400.0" y="40.0" width="64" height="64" style="fill:rgb(184.5, 134.0, 158.0);stroke:black;stroke-width:1" /><text x="408.0" y="82.0" style="fill:black;font-size:36;font-family:sans-serif;">15</text><rect x="480.0" y="40.0" width="64" height="64" style="fill:rgb(189.2, 132.33333333333334, 154.73333333333335);stroke:black;stroke-width:1" /><text x="488.0" y="82.0" style="fill:black;font-size:36;font-family:sans-serif;">16</text><rect x="560.0" y="40.0" width="64" height="64" style="fill:rgb(189.2, 132.33333333333334, 154.73333333333335);stroke:black;stroke-width:1" /><text x="568.0" y="82.0" style="fill:black;font-size:36;font-family:sans-serif;">16</text><rect x="640.0" y="40.0" width="64" height="64" style="fill:rgb(189.2, 132.33333333333334, 154.73333333333335);stroke:black;stroke-width:1" /><text x="648.0" y="82.0" style="fill:black;font-size:36;font-family:sans-serif;">16</text><rect x="760.0" y="40.0" width="64" height="64" style="fill:rgb(151.6, 145.66666666666666, 180.86666666666667);stroke:black;stroke-width:1" /><text x="780.0" y="82.0" style="fill:black;font-size:36;font-family:sans-serif;">8</text><rect x="840.0" y="40.0" width="64" height="64" style="fill:rgb(156.3, 144.0, 177.6);stroke:black;stroke-width:1" /><text x="860.0" y="82.0" style="fill:black;font-size:36;font-family:sans-serif;">9</text><rect x="920.0" y="40.0" width="64" height="64" style="fill:rgb(156.3, 144.0, 177.6);stroke:black;stroke-width:1" /><text x="940.0" y="82.0" style="fill:black;font-size:36;font-family:sans-serif;">9</text><rect x="1000.0" y="40.0" width="64" height="64" style="fill:rgb(156.3, 144.0, 177.6);stroke:black;stroke-width:1" /><text x="1020.0" y="82.0" style="fill:black;font-size:36;font-family:sans-serif;">9</text><rect x="40.0" y="120.0" width="64" height="64" style="fill:rgb(184.5, 134.0, 158.0);stroke:black;stroke-width:1" /><text x="48.0" y="162.0" style="fill:black;font-size:36;font-family:sans-serif;">15</text><rect x="120.0" y="120.0" width="64" height="64" style="fill:rgb(184.5, 134.0, 158.0);stroke:black;stroke-width:1" /><text x="128.0" y="162.0" style="fill:black;font-size:36;font-family:sans-serif;">15</text><rect x="200.0" y="120.0" width="64" height="64" style="fill:rgb(189.2, 132.33333333333334, 154.73333333333335);stroke:black;stroke-width:1" /><text x="208.0" y="162.0" style="fill:black;font-size:36;font-family:sans-serif;">16</text><rect x="280.0" y="120.0" width="64" height="64" style="fill:rgb(193.9, 130.66666666666666, 151.46666666666667);stroke:black;stroke-width:1" /><text x="288.0" y="162.0" style="fill:black;font-size:36;font-family:sans-serif;">17</text><rect x="400.0" y="120.0" width="64" height="64" style="fill:rgb(189.2, 132.33333333333334, 154.73333333333335);stroke:black;stroke-width:1" /><text x="408.0" y="162.0" style="fill:black;font-size:36;font-family:sans-serif;">16</text><rect x="480.0" y="120.0" width="64" height="64" style="fill:rgb(193.9, 130.66666666666666, 151.46666666666667);stroke:black;stroke-width:1" /><text x="488.0" y="162.0" style="fill:black;font-size:36;font-family:sans-serif;">17</text><rect x="560.0" y="120.0" width="64" height="64" style="fill:rgb(193.9, 130.66666666666666, 151.46666666666667);stroke:black;stroke-width:1" /><text x="568.0" y="162.0" style="fill:black;font-size:36;font-family:sans-serif;">17</text><rect x="640.0" y="120.0" width="64" height="64" style="fill:rgb(193.9, 130.66666666666666, 151.46666666666667);stroke:black;stroke-width:1" /><text x="648.0" y="162.0" style="fill:black;font-size:36;font-family:sans-serif;">17</text><rect x="760.0" y="120.0" width="64" height="64" style="fill:rgb(189.2, 132.33333333333334, 154.73333333333335);stroke:black;stroke-width:1" /><text x="768.0" y="162.0" style="fill:black;font-size:36;font-family:sans-serif;">16</text><rect x="840.0" y="120.0" width="64" height="64" style="fill:rgb(189.2, 132.33333333333334, 154.73333333333335);stroke:black;stroke-width:1" /><text x="848.0" y="162.0" style="fill:black;font-size:36;font-family:sans-serif;">16</text><rect x="920.0" y="120.0" width="64" height="64" style="fill:rgb(193.9, 130.66666666666666, 151.46666666666667);stroke:black;stroke-width:1" /><text x="928.0" y="162.0" style="fill:black;font-size:36;font-family:sans-serif;">17</text><rect x="1000.0" y="120.0" width="64" height="64" style="fill:rgb(193.9, 130.66666666666666, 151.46666666666667);stroke:black;stroke-width:1" /><text x="1008.0" y="162.0" style="fill:black;font-size:36;font-family:sans-serif;">17</text><rect x="40.0" y="200.0" width="64" height="64" style="fill:rgb(184.5, 134.0, 158.0);stroke:black;stroke-width:1" /><text x="48.0" y="242.0" style="fill:black;font-size:36;font-family:sans-serif;">15</text><rect x="120.0" y="200.0" width="64" height="64" style="fill:rgb(189.2, 132.33333333333334, 154.73333333333335);stroke:black;stroke-width:1" /><text x="128.0" y="242.0" style="fill:black;font-size:36;font-family:sans-serif;">16</text><rect x="200.0" y="200.0" width="64" height="64" style="fill:rgb(189.2, 132.33333333333334, 154.73333333333335);stroke:black;stroke-width:1" /><text x="208.0" y="242.0" style="fill:black;font-size:36;font-family:sans-serif;">16</text><rect x="280.0" y="200.0" width="64" height="64" style="fill:rgb(198.60000000000002, 129.0, 148.2);stroke:black;stroke-width:1" /><text x="288.0" y="242.0" style="fill:black;font-size:36;font-family:sans-serif;">18</text><rect x="400.0" y="200.0" width="64" height="64" style="fill:rgb(193.9, 130.66666666666666, 151.46666666666667);stroke:black;stroke-width:1" /><text x="408.0" y="242.0" style="fill:black;font-size:36;font-family:sans-serif;">17</text><rect x="480.0" y="200.0" width="64" height="64" style="fill:rgb(193.9, 130.66666666666666, 151.46666666666667);stroke:black;stroke-width:1" /><text x="488.0" y="242.0" style="fill:black;font-size:36;font-family:sans-serif;">17</text><rect x="560.0" y="200.0" width="64" height="64" style="fill:rgb(193.9, 130.66666666666666, 151.46666666666667);stroke:black;stroke-width:1" /><text x="568.0" y="242.0" style="fill:black;font-size:36;font-family:sans-serif;">17</text><rect x="640.0" y="200.0" width="64" height="64" style="fill:rgb(198.60000000000002, 129.0, 148.2);stroke:black;stroke-width:1" /><text x="648.0" y="242.0" style="fill:black;font-size:36;font-family:sans-serif;">18</text><rect x="760.0" y="200.0" width="64" height="64" style="fill:rgb(189.2, 132.33333333333334, 154.73333333333335);stroke:black;stroke-width:1" /><text x="768.0" y="242.0" style="fill:black;font-size:36;font-family:sans-serif;">16</text><rect x="840.0" y="200.0" width="64" height="64" style="fill:rgb(189.2, 132.33333333333334, 154.73333333333335);stroke:black;stroke-width:1" /><text x="848.0" y="242.0" style="fill:black;font-size:36;font-family:sans-serif;">16</text><rect x="920.0" y="200.0" width="64" height="64" style="fill:rgb(193.9, 130.66666666666666, 151.46666666666667);stroke:black;stroke-width:1" /><text x="928.0" y="242.0" style="fill:black;font-size:36;font-family:sans-serif;">17</text><rect x="1000.0" y="200.0" width="64" height="64" style="fill:rgb(198.60000000000002, 129.0, 148.2);stroke:black;stroke-width:1" /><text x="1008.0" y="242.0" style="fill:black;font-size:36;font-family:sans-serif;">18</text><rect x="40.0" y="280.0" width="64" height="64" style="fill:rgb(193.9, 130.66666666666666, 151.46666666666667);stroke:black;stroke-width:1" /><text x="48.0" y="322.0" style="fill:black;font-size:36;font-family:sans-serif;">17</text><rect x="120.0" y="280.0" width="64" height="64" style="fill:rgb(193.9, 130.66666666666666, 151.46666666666667);stroke:black;stroke-width:1" /><text x="128.0" y="322.0" style="fill:black;font-size:36;font-family:sans-serif;">17</text><rect x="200.0" y="280.0" width="64" height="64" style="fill:rgb(198.60000000000002, 129.0, 148.2);stroke:black;stroke-width:1" /><text x="208.0" y="322.0" style="fill:black;font-size:36;font-family:sans-serif;">18</text><rect x="280.0" y="280.0" width="64" height="64" style="fill:rgb(203.3, 127.33333333333333, 144.93333333333334);stroke:black;stroke-width:1" /><text x="288.0" y="322.0" style="fill:black;font-size:36;font-family:sans-serif;">19</text><rect x="400.0" y="280.0" width="64" height="64" style="fill:rgb(222.10000000000002, 120.66666666666666, 131.86666666666667);stroke:black;stroke-width:1" /><text x="408.0" y="322.0" style="fill:black;font-size:36;font-family:sans-serif;">23</text><rect x="480.0" y="280.0" width="64" height="64" style="fill:rgb(222.10000000000002, 120.66666666666666, 131.86666666666667);stroke:black;stroke-width:1" /><text x="488.0" y="322.0" style="fill:black;font-size:36;font-family:sans-serif;">23</text><rect x="560.0" y="280.0" width="64" height="64" style="fill:rgb(226.8, 119.0, 128.6);stroke:black;stroke-width:1" /><text x="568.0" y="322.0" style="fill:black;font-size:36;font-family:sans-serif;">24</text><rect x="640.0" y="280.0" width="64" height="64" style="fill:rgb(231.5, 117.33333333333333, 125.33333333333333);stroke:black;stroke-width:1" /><text x="648.0" y="322.0" style="fill:black;font-size:36;font-family:sans-serif;">25</text><rect x="760.0" y="280.0" width="64" height="64" style="fill:rgb(193.9, 130.66666666666666, 151.46666666666667);stroke:black;stroke-width:1" /><text x="768.0" y="322.0" style="fill:black;font-size:36;font-family:sans-serif;">17</text><rect x="840.0" y="280.0" width="64" height="64" style="fill:rgb(193.9, 130.66666666666666, 151.46666666666667);stroke:black;stroke-width:1" /><text x="848.0" y="322.0" style="fill:black;font-size:36;font-family:sans-serif;">17</text><rect x="920.0" y="280.0" width="64" height="64" style="fill:rgb(193.9, 130.66666666666666, 151.46666666666667);stroke:black;stroke-width:1" /><text x="928.0" y="322.0" style="fill:black;font-size:36;font-family:sans-serif;">17</text><rect x="1000.0" y="280.0" width="64" height="64" style="fill:rgb(198.60000000000002, 129.0, 148.2);stroke:black;stroke-width:1" /><text x="1008.0" y="322.0" style="fill:black;font-size:36;font-family:sans-serif;">18</text></svg>