<?xml version="1.0" encoding="UTF-8" standalone="no" ?><svg width="30%" height="30%" preserveAspectRatio="xMinYMin meet" viewBox="0 0 2220 740"><rect x="20" y="10.0" width="720" height="720" style="fill:#B0FDFF;stroke:black;stroke-width:1"/><polygon points="85,57.0 72,127.0 76,173.0 75,284.0 59,353.0 74,442.0 91,487.0 88,528.0 86,583.0 110,656.0 136,684.0 181,673.0 196,657.0 228,646.0 258,648.0 314,669.0 370,698.0 398,703.0 440,706.0 468,714.0 505,715.0 558,683.0 570,638.0 567,580.0 566,526.0 591,456.0 530,266.0 539,226.0 565,193.0 603,87.0 602,47.0 587,28.0 472,27.0 370,28.0 354,42.0 297,66.0 263,51.0 231,48.0 " style="fill:#D4FF9F;stroke:black;stroke-width:1" /><line x1="645" y1="210.0" x2="645" y2="360.0" style="stroke:black;stroke-width:2" /><line x1="595" y1="285.0" x2="695" y2="285.0" style="stroke:black;stroke-width:2" /><text x="632" y="205.0" style="fill:black;font-size:36;">N</text><text x="30" y="710" style="fill:black;font-size:48;font-family:sans-serif;">Friday</text><rect x="70" y="60.0" width="64" height="64" style="fill:rgb(128.1,154.0,197.2);stroke:black;stroke-width:1" /><text x="90" y="102.0" style="fill:black;font-size:36;font-family:sans-serif;">3</text><rect x="220" y="60.0" width="64" height="64" style="fill:rgb(128.1,154.0,197.2);stroke:black;stroke-width:1" /><text x="240" y="102.0" style="fill:black;font-size:36;font-family:sans-serif;">3</text><rect x="370" y="60.0" width="64" height="64" style="fill:rgb(132.8,152.33333333333334,193.93333333333334);stroke:black;stroke-width:1" /><text x="390" y="102.0" style="fill:black;font-size:36;font-family:sans-serif;">4</text><rect x="520" y="60.0" width="64" height="64" style="fill:rgb(132.8,152.33333333333334,193.93333333333334);stroke:black;stroke-width:1" /><text x="540" y="102.0" style="fill:black;font-size:36;font-family:sans-serif;">4</text><rect x="70" y="240.0" width="64" height="64" style="fill:rgb(132.8,152.33333333333334,193.93333333333334);stroke:black;stroke-width:1" /><text x="90" y="282.0" style="fill:black;font-size:36;font-family:sans-serif;">4</text><rect x="220" y="240.0" width="64" height="64" style="fill:rgb(132.8,152.33333333333334,193.93333333333334);stroke:black;stroke-width:1" /><text x="240" y="282.0" style="fill:black;font-size:36;font-family:sans-serif;">4</text><rect x="370" y="240.0" width="64" height="64" style="fill:rgb(137.5,150.66666666666666,190.66666666666666);stroke:black;stroke-width:1" /><text x="390" y="282.0" style="fill:black;font-size:36;font-family:sans-serif;">5</text><rect x="520" y="240.0" width="64" height="64" style="fill:rgb(137.5,150.66666666666666,190.66666666666666);stroke:black;stroke-width:1" /><text x="540" y="282.0" style="fill:black;font-size:36;font-family:sans-serif;">5</text><rect x="70" y="420.0" width="64" height="64" style="fill:rgb(184.5,134.0,158.0);stroke:black;stroke-width:1" /><text x="78" y="462.0" style="fill:black;font-size:36;font-family:sans-serif;">15</text><rect x="220" y="420.0" width="64" height="64" style="fill:rgb(189.2,132.33333333333334,154.73333333333335);stroke:black;stroke-width:1" /><text x="228" y="462.0" style="fill:black;font-size:36;font-family:sans-serif;">16</text><rect x="370" y="420.0" width="64" height="64" style="fill:rgb(189.2,132.33333333333334,154.73333333333335);stroke:black;stroke-width:1" /><text x="378" y="462.0" style="fill:black;font-size:36;font-family:sans-serif;">16</text><rect x="520" y="420.0" width="64" height="64" style="fill:rgb(198.60000000000002,129.0,148.2);stroke:black;stroke-width:1" /><text x="528" y="462.0" style="fill:black;font-size:36;font-family:sans-serif;">18</text><rect x="70" y="600.0" width="64" height="64" style="fill:rgb(193.9,130.66666666666666,151.46666666666667);stroke:black;stroke-width:1" /><text x="78" y="642.0" style="fill:black;font-size:36;font-family:sans-serif;">17</text><rect x="220" y="600.0" width="64" height="64" style="fill:rgb(193.9,130.66666666666666,151.46666666666667);stroke:black;stroke-width:1" /><text x="228" y="642.0" style="fill:black;font-size:36;font-family:sans-serif;">17</text><rect x="370" y="600.0" width="64" height="64" style="fill:rgb(198.60000000000002,129.0,148.2);stroke:black;stroke-width:1" /><text x="378" y="642.0" style="fill:black;font-size:36;font-family:sans-serif;">18</text><rect x="520" y="600.0" width="64" height="64" style="fill:rgb(203.3,127.33333333333333,144.93333333333334);stroke:black;stroke-width:1" /><text x="528" y="642.0" style="fill:black;font-size:36;font-family:sans-serif;">19</text><rect x="750.0" y="10.0" width="720" height="720" style="fill:#B0FDFF;stroke:black;stroke-width:1"/><polygon points="815.0,57.0 802.0,127.0 806.0,173.0 805.0,284.0 789.0,353.0 804.0,442.0 821.0,487.0 818.0,528.0 816.0,583.0 840.0,656.0 866.0,684.0 911.0,673.0 926.0,657.0 958.0,646.0 988.0,648.0 1044.0,669.0 1100.0,698.0 1128.0,703.0 1170.0,706.0 1198.0,714.0 1235.0,715.0 1288.0,683.0 1300.0,638.0 1297.0,580.0 1296.0,526.0 1321.0,456.0 1260.0,266.0 1269.0,226.0 1295.0,193.0 1333.0,87.0 1332.0,47.0 1317.0,28.0 1202.0,27.0 1100.0,28.0 1084.0,42.0 1027.0,66.0 993.0,51.0 961.0,48.0 " style="fill:#D4FF9F;stroke:black;stroke-width:1" /><line x1="1375.0" y1="210.0" x2="1375.0" y2="360.0" style="stroke:black;stroke-width:2" /><line x1="1325.0" y1="285.0" x2="1425.0" y2="285.0" style="stroke:black;stroke-width:2" /><text x="1362.0" y="205.0" style="fill:black;font-size:36;">N</text><text x="760.0" y="710" style="fill:black;font-size:48;font-family:sans-serif;">Saturday</text><rect x="800.0" y="60.0" width="64" height="64" style="fill:rgb(184.5,134.0,158.0);stroke:black;stroke-width:1" /><text x="808.0" y="102.0" style="fill:black;font-size:36;font-family:sans-serif;">15</text><rect x="950.0" y="60.0" width="64" height="64" style="fill:rgb(189.2,132.33333333333334,154.73333333333335);stroke:black;stroke-width:1" /><text x="958.0" y="102.0" style="fill:black;font-size:36;font-family:sans-serif;">16</text><rect x="1100.0" y="60.0" width="64" height="64" style="fill:rgb(189.2,132.33333333333334,154.73333333333335);stroke:black;stroke-width:1" /><text x="1108.0" y="102.0" style="fill:black;font-size:36;font-family:sans-serif;">16</text><rect x="1250.0" y="60.0" width="64" height="64" style="fill:rgb(189.2,132.33333333333334,154.73333333333335);stroke:black;stroke-width:1" /><text x="1258.0" y="102.0" style="fill:black;font-size:36;font-family:sans-serif;">16</text><rect x="800.0" y="240.0" width="64" height="64" style="fill:rgb(189.2,132.33333333333334,154.73333333333335);stroke:black;stroke-width:1" /><text x="808.0" y="282.0" style="fill:black;font-size:36;font-family:sans-serif;">16</text><rect x="950.0" y="240.0" width="64" height="64" style="fill:rgb(193.9,130.66666666666666,151.46666666666667);stroke:black;stroke-width:1" /><text x="958.0" y="282.0" style="fill:black;font-size:36;font-family:sans-serif;">17</text><rect x="1100.0" y="240.0" width="64" height="64" style="fill:rgb(193.9,130.66666666666666,151.46666666666667);stroke:black;stroke-width:1" /><text x="1108.0" y="282.0" style="fill:black;font-size:36;font-family:sans-serif;">17</text><rect x="1250.0" y="240.0" width="64" height="64" style="fill:rgb(193.9,130.66666666666666,151.46666666666667);stroke:black;stroke-width:1" /><text x="1258.0" y="282.0" style="fill:black;font-size:36;font-family:sans-serif;">17</text><rect x="800.0" y="420.0" width="64" height="64" style="fill:rgb(217.4,122.33333333333333,135.13333333333333);stroke:black;stroke-width:1" /><text x="808.0" y="462.0" style="fill:black;font-size:36;font-family:sans-serif;">22</text><rect x="950.0" y="420.0" width="64" height="64" style="fill:rgb(217.4,122.33333333333333,135.13333333333333);stroke:black;stroke-width:1" /><text x="958.0" y="462.0" style="fill:black;font-size:36;font-family:sans-serif;">22</text><rect x="1100.0" y="420.0" width="64" height="64" style="fill:rgb(217.4,122.33333333333333,135.13333333333333);stroke:black;stroke-width:1" /><text x="1108.0" y="462.0" style="fill:black;font-size:36;font-family:sans-serif;">22</text><rect x="1250.0" y="420.0" width="64" height="64" style="fill:rgb(231.5,117.33333333333333,125.33333333333333);stroke:black;stroke-width:1" /><text x="1258.0" y="462.0" style="fill:black;font-size:36;font-family:sans-serif;">25</text><rect x="800.0" y="600.0" width="64" height="64" style="fill:rgb(222.10000000000002,120.66666666666666,131.86666666666667);stroke:black;stroke-width:1" /><text x="808.0" y="642.0" style="fill:black;font-size:36;font-family:sans-serif;">23</text><rect x="950.0" y="600.0" width="64" height="64" style="fill:rgb(222.10000000000002,120.66666666666666,131.86666666666667);stroke:black;stroke-width:1" /><text x="958.0" y="642.0" style="fill:black;font-size:36;font-family:sans-serif;">23</text><rect x="1100.0" y="600.0" width="64" height="64" style="fill:rgb(226.8,119.0,128.6);stroke:black;stroke-width:1" /><text x="1108.0" y="642.0" style="fill:black;font-size:36;font-family:sans-serif;">24</text><rect x="1250.0" y="600.0" width="64" height="64" style="fill:rgb(231.5,117.33333333333333,125.33333333333333);stroke:black;stroke-width:1" /><text x="1258.0" y="642.0" style="fill:black;font-size:36;font-family:sans-serif;">25</text><rect x="1480.0" y="10.0" width="720" height="720" style="fill:#B0FDFF;stroke:black;stroke-width:1"/><polygon points="1545.0,57.0 1532.0,127.0 1536.0,173.0 1535.0,284.0 1519.0,353.0 1534.0,442.0 1551.0,487.0 1548.0,528.0 1546.0,583.0 1570.0,656.0 1596.0,684.0 1641.0,673.0 1656.0,657.0 1688.0,646.0 1718.0,648.0 1774.0,669.0 1830.0,698.0 1858.0,703.0 1900.0,706.0 1928.0,714.0 1965.0,715.0 2018.0,683.0 2030.0,638.0 2027.0,580.0 2026.0,526.0 2051.0,456.0 1990.0,266.0 1999.0,226.0 2025.0,193.0 2063.0,87.0 2062.0,47.0 2047.0,28.0 1932.0,27.0 1830.0,28.0 1814.0,42.0 1757.0,66.0 1723.0,51.0 1691.0,48.0 " style="fill:#D4FF9F;stroke:black;stroke-width:1" /><line x1="2105.0" y1="210.0" x2="2105.0" y2="360.0" style="stroke:black;stroke-width:2" /><line x1="2055.0" y1="285.0" x2="2155.0" y2="285.0" style="stroke:black;stroke-width:2" /><text x="2092.0" y="205.0" style="fill:black;font-size:36;">N</text><text x="1490.0" y="710" style="fill:black;font-size:48;font-family:sans-serif;">Sunday</text><rect x="1530.0" y="60.0" width="64" height="64" style="fill:rgb(151.6,145.66666666666666,180.86666666666667);stroke:black;stroke-width:1" /><text x="1550.0" y="102.0" style="fill:black;font-size:36;font-family:sans-serif;">8</text><rect x="1680.0" y="60.0" width="64" height="64" style="fill:rgb(156.3,144.0,177.6);stroke:black;stroke-width:1" /><text x="1700.0" y="102.0" style="fill:black;font-size:36;font-family:sans-serif;">9</text><rect x="1830.0" y="60.0" width="64" height="64" style="fill:rgb(156.3,144.0,177.6);stroke:black;stroke-width:1" /><text x="1850.0" y="102.0" style="fill:black;font-size:36;font-family:sans-serif;">9</text><rect x="1980.0" y="60.0" width="64" height="64" style="fill:rgb(156.3,144.0,177.6);stroke:black;stroke-width:1" /><text x="2000.0" y="102.0" style="fill:black;font-size:36;font-family:sans-serif;">9</text><rect x="1530.0" y="240.0" width="64" height="64" style="fill:rgb(156.3,144.0,177.6);stroke:black;stroke-width:1" /><text x="1550.0" y="282.0" style="fill:black;font-size:36;font-family:sans-serif;">9</text><rect x="1680.0" y="240.0" width="64" height="64" style="fill:rgb(156.3,144.0,177.6);stroke:black;stroke-width:1" /><text x="1700.0" y="282.0" style="fill:black;font-size:36;font-family:sans-serif;">9</text><rect x="1830.0" y="240.0" width="64" height="64" style="fill:rgb(161.0,142.33333333333334,174.33333333333334);stroke:black;stroke-width:1" /><text x="1838.0" y="282.0" style="fill:black;font-size:36;font-family:sans-serif;">10</text><rect x="1980.0" y="240.0" width="64" height="64" style="fill:rgb(161.0,142.33333333333334,174.33333333333334);stroke:black;stroke-width:1" /><text x="1988.0" y="282.0" style="fill:black;font-size:36;font-family:sans-serif;">10</text><rect x="1530.0" y="420.0" width="64" height="64" style="fill:rgb(189.2,132.33333333333334,154.73333333333335);stroke:black;stroke-width:1" /><text x="1538.0" y="462.0" style="fill:black;font-size:36;font-family:sans-serif;">16</text><rect x="1680.0" y="420.0" width="64" height="64" style="fill:rgb(189.2,132.33333333333334,154.73333333333335);stroke:black;stroke-width:1" /><text x="1688.0" y="462.0" style="fill:black;font-size:36;font-family:sans-serif;">16</text><rect x="1830.0" y="420.0" width="64" height="64" style="fill:rgb(193.9,130.66666666666666,151.46666666666667);stroke:black;stroke-width:1" /><text x="1838.0" y="462.0" style="fill:black;font-size:36;font-family:sans-serif;">17</text><rect x="1980.0" y="420.0" width="64" height="64" style="fill:rgb(198.60000000000002,129.0,148.2);stroke:black;stroke-width:1" /><text x="1988.0" y="462.0" style="fill:black;font-size:36;font-family:sans-serif;">18</text><rect x="1530.0" y="600.0" width="64" height="64" style="fill:rgb(193.9,130.66666666666666,151.46666666666667);stroke:black;stroke-width:1" /><text x="1538.0" y="642.0" style="fill:black;font-size:36;font-family:sans-serif;">17</text><rect x="1680.0" y="600.0" width="64" height="64" style="fill:rgb(193.9,130.66666666666666,151.46666666666667);stroke:black;stroke-width:1" /><text x="1688.0" y="642.0" style="fill:black;font-size:36;font-family:sans-serif;">17</text><rect x="1830.0" y="600.0" width="64" height="64" style="fill:rgb(193.9,130.66666666666666,151.46666666666667);stroke:black;stroke-width:1" /><text x="1838.0" y="642.0" style="fill:black;font-size:36;font-family:sans-serif;">17</text><rect x="1980.0" y="600.0" width="64" height="64" style="fill:rgb(198.60000000000002,129.0,148.2);stroke:black;stroke-width:1" /><text x="1988.0" y="642.0" style="fill:black;font-size:36;font-family:sans-serif;">18</text></svg>
